<svg width="25" height="24" viewBox="0 0 25 24" fill="none" xmlns="http://www.w3.org/2000/svg">
<path d="M24.5 12C24.5 18.6273 19.1273 24 12.5 24C5.87333 24 0.5 18.6273 0.5 12C0.5 5.37333 5.87333 0 12.5 0C19.1273 0 24.5 5.37333 24.5 12Z" fill="#FFC700"/>
<path d="M8.16667 12C9.08714 12 9.83333 10.3583 9.83333 8.33329C9.83333 6.30825 9.08714 4.66663 8.16667 4.66663C7.24619 4.66663 6.5 6.30825 6.5 8.33329C6.5 10.3583 7.24619 12 8.16667 12Z" fill="black"/>
<path d="M16.8333 12C17.7538 12 18.5 10.3583 18.5 8.33329C18.5 6.30825 17.7538 4.66663 16.8333 4.66663C15.9128 4.66663 15.1666 6.30825 15.1666 8.33329C15.1666 10.3583 15.9128 12 16.8333 12Z" fill="black"/>
<path d="M12.5 14.6666C10.0846 14.6666 8.48196 14.3853 6.49996 14C6.04729 13.9126 5.16663 14 5.16663 15.3333C5.16663 18 8.22996 21.3333 12.5 21.3333C16.7693 21.3333 19.8333 18 19.8333 15.3333C19.8333 14 18.9526 13.912 18.5 14C16.518 14.3853 14.9153 14.6666 12.5 14.6666Z" fill="black"/>
<path d="M6.5 15.3333C6.5 15.3333 8.5 15.9999 12.5 15.9999C16.5 15.9999 18.5 15.3333 18.5 15.3333C18.5 15.3333 17.1667 17.9999 12.5 17.9999C7.83333 17.9999 6.5 15.3333 6.5 15.3333Z" fill="white"/>
</svg>
