<svg width="25" height="24" viewBox="0 0 25 24" fill="none" xmlns="http://www.w3.org/2000/svg">
<path d="M12.5 24C19.1274 24 24.5 18.6274 24.5 12C24.5 5.37258 19.1274 0 12.5 0C5.87258 0 0.5 5.37258 0.5 12C0.5 18.6274 5.87258 24 12.5 24Z" fill="#FFC700"/>
<path d="M7.51002 15.7473C7.54002 15.8667 8.28869 18.6667 12.5 18.6667C16.712 18.6667 17.46 15.8667 17.49 15.7473C17.5075 15.677 17.5016 15.6028 17.4731 15.5361C17.4445 15.4694 17.395 15.4139 17.332 15.378C17.2687 15.3422 17.1956 15.3279 17.1235 15.3371C17.0514 15.3464 16.9842 15.3787 16.932 15.4293C16.9194 15.442 15.6294 16.6667 12.5 16.6667C9.37069 16.6667 8.08002 15.442 8.06802 15.43C8.01641 15.379 7.94961 15.3461 7.87771 15.3364C7.8058 15.3267 7.73268 15.3406 7.66936 15.376C7.6058 15.4119 7.55579 15.4677 7.52701 15.5348C7.49822 15.6018 7.49226 15.6765 7.51002 15.7473Z" fill="black"/>
<path d="M8.50004 11.3334C9.42052 11.3334 10.1667 10.2887 10.1667 9.00008C10.1667 7.71142 9.42052 6.66675 8.50004 6.66675C7.57957 6.66675 6.83337 7.71142 6.83337 9.00008C6.83337 10.2887 7.57957 11.3334 8.50004 11.3334Z" fill="black"/>
<path d="M16.5 11.3334C17.4205 11.3334 18.1667 10.2887 18.1667 9.00008C18.1667 7.71142 17.4205 6.66675 16.5 6.66675C15.5796 6.66675 14.8334 7.71142 14.8334 9.00008C14.8334 10.2887 15.5796 11.3334 16.5 11.3334Z" fill="black"/>
</svg>
