<svg width="25" height="24" viewBox="0 0 25 24" fill="none" xmlns="http://www.w3.org/2000/svg">
<path d="M24.5 12C24.5 18.6273 19.1273 24 12.5 24C5.87333 24 0.5 18.6273 0.5 12C0.5 5.37333 5.87333 0 12.5 0C19.1273 0 24.5 5.37333 24.5 12Z" fill="#F24E1E"/>
<path d="M17.49 19.9194C17.46 19.8 16.7113 17 12.5 17C8.28799 17 7.53999 19.8 7.50999 19.9194C7.49247 19.9897 7.49843 20.0639 7.52695 20.1306C7.55547 20.1973 7.605 20.2528 7.66799 20.2887C7.73133 20.3243 7.80444 20.3385 7.87648 20.3292C7.94853 20.32 8.01568 20.2878 8.06799 20.2374C8.08066 20.2247 9.37066 19 12.5 19C15.6293 19 16.92 20.2247 16.932 20.2367C16.9836 20.2877 17.0504 20.3206 17.1223 20.3303C17.1942 20.34 17.2673 20.3261 17.3307 20.2907C17.3942 20.2548 17.4442 20.199 17.473 20.1319C17.5018 20.0649 17.5078 19.9902 17.49 19.9194ZM10.9713 11.5287C8.80132 9.35871 5.31399 9.33337 5.16666 9.33337C4.995 9.34097 4.83288 9.41448 4.71407 9.5386C4.59525 9.66273 4.52889 9.8279 4.52881 9.99972C4.52872 10.1715 4.59492 10.3368 4.71361 10.461C4.8323 10.5853 4.99434 10.6589 5.16599 10.6667C5.18532 10.6667 6.44932 10.6814 7.82132 11.158C7.42599 11.5847 7.16666 12.2474 7.16666 13C7.16666 14.2894 7.91266 15.3334 8.83332 15.3334C9.75399 15.3334 10.5 14.2894 10.5 13C10.5 12.884 10.4873 12.7734 10.4753 12.662C10.484 12.662 10.492 12.6667 10.5 12.6667C10.632 12.667 10.7611 12.6281 10.8709 12.5549C10.9807 12.4817 11.0663 12.3775 11.1168 12.2556C11.1673 12.1336 11.1804 11.9994 11.1545 11.87C11.1286 11.7406 11.0649 11.6218 10.9713 11.5287ZM19.8333 9.33337C19.686 9.33337 16.1993 9.35871 14.0287 11.5287C13.9351 11.6218 13.8714 11.7406 13.8455 11.87C13.8196 11.9994 13.8327 12.1336 13.8832 12.2556C13.9337 12.3775 14.0193 12.4817 14.1291 12.5549C14.2389 12.6281 14.368 12.667 14.5 12.6667C14.5087 12.6667 14.516 12.662 14.524 12.662C14.5133 12.7734 14.5 12.884 14.5 13C14.5 14.2894 15.246 15.3334 16.1667 15.3334C17.0873 15.3334 17.8333 14.2894 17.8333 13C17.8333 12.2474 17.574 11.5847 17.1787 11.158C18.0353 10.8657 18.9301 10.7002 19.8347 10.6667C19.9222 10.6666 20.0089 10.6493 20.0897 10.6157C20.1706 10.5821 20.244 10.5329 20.3059 10.471C20.3677 10.409 20.4167 10.3355 20.4502 10.2545C20.4836 10.1736 20.5007 10.0869 20.5007 9.99937C20.5006 9.91183 20.4832 9.82515 20.4497 9.7443C20.4161 9.66345 20.3669 9.59001 20.3049 9.52816C20.243 9.46632 20.1694 9.41729 20.0885 9.38387C20.0076 9.35044 19.9209 9.33329 19.8333 9.33337Z" fill="black"/>
</svg>
