<svg width="25" height="24" viewBox="0 0 25 24" fill="none" xmlns="http://www.w3.org/2000/svg">
<path d="M24.5 12C24.5 18.6273 19.1273 24 12.5 24C5.87333 24 0.5 18.6273 0.5 12C0.5 5.37333 5.87333 0 12.5 0C19.1273 0 24.5 5.37333 24.5 12Z" fill="#FF8311"/>
<path d="M8.16661 13.3334C9.08708 13.3334 9.83327 12.2887 9.83327 11.0001C9.83327 9.71142 9.08708 8.66675 8.16661 8.66675C7.24613 8.66675 6.49994 9.71142 6.49994 11.0001C6.49994 12.2887 7.24613 13.3334 8.16661 13.3334Z" fill="black"/>
<path d="M16.8332 13.3334C17.7537 13.3334 18.4999 12.2887 18.4999 11.0001C18.4999 9.71142 17.7537 8.66675 16.8332 8.66675C15.9128 8.66675 15.1666 9.71142 15.1666 11.0001C15.1666 12.2887 15.9128 13.3334 16.8332 13.3334Z" fill="black"/>
<path d="M17.1666 17.3333H7.83329C7.65648 17.3333 7.48691 17.2631 7.36189 17.1381C7.23686 17.013 7.16663 16.8435 7.16663 16.6667C7.16663 16.4899 7.23686 16.3203 7.36189 16.1953C7.48691 16.0702 7.65648 16 7.83329 16H17.1666C17.3434 16 17.513 16.0702 17.638 16.1953C17.7631 16.3203 17.8333 16.4899 17.8333 16.6667C17.8333 16.8435 17.7631 17.013 17.638 17.1381C17.513 17.2631 17.3434 17.3333 17.1666 17.3333Z" fill="black"/>
</svg>
