<svg width="25" height="24" viewBox="0 0 25 24" fill="none" xmlns="http://www.w3.org/2000/svg">
<path d="M12.5 24C19.1274 24 24.5 18.6274 24.5 12C24.5 5.37258 19.1274 0 12.5 0C5.87258 0 0.5 5.37258 0.5 12C0.5 18.6274 5.87258 24 12.5 24Z" fill="#FF8311"/>
<path d="M17.49 18.2527C17.46 18.1334 16.7113 15.3334 12.5 15.3334C8.28798 15.3334 7.53998 18.1334 7.50998 18.2527C7.49246 18.3231 7.49841 18.3972 7.52693 18.4639C7.55546 18.5306 7.60498 18.5861 7.66797 18.622C7.73125 18.6578 7.80441 18.6721 7.87651 18.6629C7.94861 18.6536 8.01578 18.6213 8.06798 18.5707C8.08064 18.558 9.37064 17.3334 12.5 17.3334C15.6293 17.3334 16.92 18.558 16.932 18.57C16.9836 18.621 17.0504 18.6539 17.1223 18.6636C17.1942 18.6734 17.2673 18.6595 17.3306 18.624C17.3942 18.5881 17.4442 18.5324 17.473 18.4653C17.5018 18.3982 17.5077 18.3235 17.49 18.2527Z" fill="black"/>
<path d="M8.50004 11.3334C9.42052 11.3334 10.1667 10.2887 10.1667 9.00008C10.1667 7.71142 9.42052 6.66675 8.50004 6.66675C7.57957 6.66675 6.83337 7.71142 6.83337 9.00008C6.83337 10.2887 7.57957 11.3334 8.50004 11.3334Z" fill="black"/>
<path d="M16.5 11.3334C17.4205 11.3334 18.1667 10.2887 18.1667 9.00008C18.1667 7.71142 17.4205 6.66675 16.5 6.66675C15.5796 6.66675 14.8334 7.71142 14.8334 9.00008C14.8334 10.2887 15.5796 11.3334 16.5 11.3334Z" fill="black"/>
</svg>
